<svg width="18.000000" height="25.000000" viewBox="0 0 18 25" fill="none" xmlns="http://www.w3.org/2000/svg" xmlns:xlink="http://www.w3.org/1999/xlink">
	<desc>
			Created with Pixso.
	</desc>
	<defs/>
	<path id="2" d="M-0.19 21.92L-0.19 24.98L17.63 24.98L17.63 21.92L4.99 21.92L4.67 21.95L4.67 21.88L5.03 21.66L10.25 17.95Q13.92 15.36 15.76 12.92Q16.45 11.99 16.89 10.96Q17.63 9.21 17.63 7.16C17.63 4.88 16.81 2.96 15.18 1.4Q14.39 0.64 13.47 0.13Q11.53 -0.95 8.99 -0.95Q6.21 -0.95 4.19 0.29Q2.54 1.3 1.39 3.12C0.67 4.32 0.21 5.67 -0.01 7.16L3.41 7.16C3.58 6.24 3.9 5.4 4.38 4.64C5.39 2.96 6.93 2.11 8.99 2.11Q10.84 2.11 12.13 2.96Q12.53 3.22 12.88 3.56C13.89 4.49 14.39 5.69 14.39 7.16Q14.39 8.55 13.91 9.75Q13.56 10.63 12.95 11.4C11.99 12.63 10.37 14.09 8.09 15.8L-0.19 21.92Z" fill="#FFFFFF" fill-opacity="1.000000" fill-rule="evenodd"/>
</svg>
