<svg width="19.000000" height="26.000000" viewBox="0 0 19 26" fill="none" xmlns="http://www.w3.org/2000/svg" xmlns:xlink="http://www.w3.org/1999/xlink">
	<desc>
			Created with Pixso.
	</desc>
	<defs/>
	<path id="3" d="M2.61 18.14L-0.81 18.14C-0.5 19.5 0.07 20.76 0.88 21.92Q1.72 23.12 2.84 23.94Q5.23 25.7 8.91 25.7C11.62 25.7 13.85 24.9 15.61 23.32C17.38 21.74 18.27 19.83 18.27 17.6C18.27 15.39 17.39 13.49 15.64 11.91C13.91 10.3 11.73 9.5 9.09 9.5L8.55 9.5L8.59 9.46L8.91 9.21L16.83 2.84L16.83 -0.23L0.45 -0.23L0.45 2.84L12.33 2.84L12.29 2.87L3.87 9.68L3.87 12.56L9.09 12.56C10.94 12.56 12.39 13.02 13.45 13.96C14.5 14.9 15.03 16.11 15.03 17.6C15.03 19.08 14.49 20.29 13.41 21.23C12.35 22.17 10.85 22.64 8.91 22.64Q6.49 22.64 4.88 21.49Q4.24 21.04 3.73 20.4C3.2 19.78 2.83 19.02 2.61 18.14Z" fill="#FFFFFF" fill-opacity="1.000000" fill-rule="evenodd"/>
</svg>
