<svg width="32.000000" height="32.000000" viewBox="0 0 32 32" fill="none" xmlns="http://www.w3.org/2000/svg" xmlns:xlink="http://www.w3.org/1999/xlink">
	<desc>
			Created with Pixso.
	</desc>
	<defs>
		<clipPath id="clip1_1053">
			<rect id="Frame 4" width="32.000000" height="32.000000" fill="white" fill-opacity="0"/>
		</clipPath>
	</defs>
	<g clip-path="url(#clip1_1053)">
		<path id="Vector" d="M10.8782 4.01978C12.7346 3.98999 14.5916 4.01123 16.4485 4.00854C18.6504 4.00854 20.8524 3.98315 23.0543 4.02026C23.7382 4.03638 24.4242 4.21899 25.0114 4.58691C25.5693 4.93115 26.0297 5.42749 26.3838 5.98804C26.7772 6.59985 27.0022 7.32959 27 8.06616C26.991 9.2356 26.5258 10.4192 25.6604 11.1882C25.0963 11.7009 24.3962 12.0505 23.657 12.186C23.3224 12.2498 22.9823 12.2744 22.6425 12.272C20.5405 12.2712 18.4386 12.27 16.3367 12.2771C16.0305 12.2771 15.6929 12.2551 15.4292 12.4458C15.2134 12.6006 15.1477 12.8901 15.1511 13.1477C15.1538 14.9211 15.1492 16.6941 15.1511 18.4675C15.1445 18.6311 15.1692 18.8057 15.1045 18.9597C15.0623 19.0347 14.9702 18.9878 14.9155 18.9561C13.3369 18.051 11.7566 17.1487 10.1836 16.2322C9.44849 15.8086 8.69336 15.4207 7.979 14.9595C7.39771 14.5779 6.84937 14.1299 6.40796 13.5796C5.5271 12.4629 4.99487 11.0369 5 9.58838C5.03247 8.07007 5.68921 6.57471 6.78027 5.55811C7.26929 5.08691 7.83325 4.69067 8.45972 4.44336C8.96338 4.24194 9.49097 4.09253 10.0305 4.04565C10.3125 4.02417 10.5952 4.02808 10.8782 4.01978Z" fill="#FFFFFF" fill-opacity="0.600000" fill-rule="nonzero"/>
		<path id="Vector" d="M16.8835 13.3469C16.958 13.3081 17.0312 13.3628 17.0983 13.3943C17.6338 13.7012 18.1682 14.0103 18.703 14.3188C19.3719 14.7117 20.054 15.0793 20.728 15.4617C21.3615 15.8342 21.9907 16.2146 22.6296 16.5769C23.5027 17.0737 24.4036 17.5693 25.0897 18.3389C25.4644 18.7449 25.74 19.2336 26.0021 19.7231C26.1357 19.9878 26.2765 20.2544 26.3462 20.5476C26.4059 20.7812 26.451 21.019 26.5272 21.248C26.6665 21.6653 26.6643 22.1125 26.6665 22.5488C26.6709 22.9094 26.6262 23.2686 26.5444 23.6184C26.4048 24.1978 26.2161 24.7708 25.9119 25.2803C25.5787 25.8452 25.1461 26.3445 24.6536 26.7627C23.9158 27.3889 23.0031 27.7605 22.0718 27.9248C21.5436 28.0203 21.0059 27.9988 20.4725 27.9968C16.8813 27.989 13.2898 28.0007 9.69849 27.9968C9.18384 28.0051 8.6626 27.9819 8.1665 27.8271C7.43188 27.6106 6.77734 27.1467 6.27441 26.5515C5.88892 26.1064 5.62793 25.5569 5.46924 24.9834C5.10815 23.6699 5.48462 22.1763 6.39893 21.2034C6.91113 20.646 7.56616 20.2039 8.30127 20.0637C8.92041 19.9602 9.54712 19.9006 10.1746 19.9094C12.1289 19.9001 14.0833 19.908 16.0376 19.8999C16.2571 19.8918 16.501 19.8462 16.6523 19.6643C16.8032 19.4768 16.8235 19.2192 16.8267 18.9846C16.8279 17.2346 16.8252 15.4846 16.8279 13.7344C16.8345 13.605 16.8154 13.4622 16.8835 13.3469Z" fill="#FFFFFF" fill-opacity="0.600000" fill-rule="nonzero"/>
	</g>
</svg>
