<svg width="32.000000" height="32.000000" viewBox="0 0 32 32" fill="none" xmlns="http://www.w3.org/2000/svg" xmlns:xlink="http://www.w3.org/1999/xlink">
	<desc>
			Created with Pixso.
	</desc>
	<defs>
		<clipPath id="clip1_1060">
			<rect id="fluent:mail-24-filled" width="32.000000" height="32.000000" fill="white" fill-opacity="0"/>
		</clipPath>
	</defs>
	<rect id="fluent:mail-24-filled" width="32.000000" height="32.000000" fill="#FFFFFF" fill-opacity="0"/>
	<g clip-path="url(#clip1_1060)">
		<path id="Vector" d="M29.3331 11.4775L29.3331 22.3335C29.3333 23.4404 28.9098 24.5054 28.1497 25.3098C27.3894 26.1143 26.3502 26.5974 25.2451 26.6602L24.9999 26.6667L6.99976 26.6667C5.89307 26.667 4.82812 26.2434 4.02344 25.4832C3.21899 24.7231 2.73584 23.6838 2.6731 22.5789L2.6665 22.3335L2.6665 11.4775L15.5359 18.2188C15.679 18.2937 15.8381 18.333 15.9998 18.333C16.1614 18.333 16.3206 18.2937 16.4639 18.2188L29.3331 11.4775ZM6.99976 5.3335L24.9999 5.3335C26.074 5.33325 27.1099 5.73218 27.9066 6.45264C28.7032 7.17285 29.2041 8.16357 29.3119 9.23218L15.9998 16.2056L2.68774 9.23218C2.79126 8.20581 3.25732 7.25024 4.0022 6.53687C4.74707 5.82349 5.72217 5.39917 6.75195 5.34009L6.99976 5.3335L24.9999 5.3335L6.99976 5.3335Z" fill="#FFFFFF" fill-opacity="0.600000" fill-rule="nonzero"/>
	</g>
</svg>
