<svg width="32.000000" height="32.000000" viewBox="0 0 32 32" fill="none" xmlns="http://www.w3.org/2000/svg" xmlns:xlink="http://www.w3.org/1999/xlink">
	<desc>
			Created with Pixso.
	</desc>
	<defs>
		<clipPath id="clip1_1058">
			<rect id="ant-design:skype-filled" width="32.000000" height="32.000000" fill="white" fill-opacity="0"/>
		</clipPath>
	</defs>
	<rect id="ant-design:skype-filled" width="32.000000" height="32.000000" fill="#FFFFFF" fill-opacity="0"/>
	<g clip-path="url(#clip1_1058)">
		<path id="Vector" d="M27.6156 18.0813C27.7438 17.3782 27.8125 16.6594 27.8125 15.9407C27.8125 14.3469 27.5 12.8 26.8844 11.3469C26.2906 9.94067 25.4375 8.67822 24.3531 7.59375C23.2778 6.51562 22.0032 5.65698 20.6 5.06567C19.1438 4.44995 17.6 4.13745 16.0063 4.13745C15.2563 4.13745 14.5032 4.20947 13.772 4.3501C12.76 3.81372 11.6326 3.53271 10.4875 3.53125C8.62183 3.53125 6.86572 4.25928 5.54688 5.57812C4.89624 6.22559 4.38013 6.99561 4.02881 7.84351C3.67749 8.69165 3.4978 9.60083 3.5 10.5188C3.5 11.7063 3.80615 12.875 4.37817 13.9062C4.26245 14.575 4.19995 15.2593 4.19995 15.9407C4.19995 17.5344 4.51245 19.0813 5.12817 20.5344C5.72192 21.9407 6.57178 23.2031 7.65625 24.2876C8.74072 25.3718 10.0032 26.2219 11.4094 26.8157C12.8657 27.4312 14.4094 27.7437 16.0032 27.7437C16.6968 27.7437 17.3906 27.6812 18.0719 27.5593C19.1188 28.1499 20.3 28.4656 21.5094 28.4656C23.375 28.4656 25.1312 27.7407 26.4501 26.4187C27.7719 25.1001 28.4969 23.3438 28.4969 21.478C28.5 20.2905 28.1937 19.1187 27.6156 18.0813ZM16.0532 23.1719C11.8594 23.1719 9.98438 21.1094 9.98438 19.5657C9.98438 18.772 10.5688 18.2188 11.375 18.2188C13.1687 18.2188 12.7063 20.7969 16.0532 20.7969C17.7688 20.7969 18.7157 19.8657 18.7157 18.9126C18.7157 18.3406 18.4344 17.7031 17.3031 17.425L13.5718 16.4937C10.5688 15.7407 10.022 14.1157 10.022 12.5906C10.022 9.42188 13.0063 8.2312 15.8093 8.2312C18.3906 8.2312 21.4344 9.65942 21.4344 11.5593C21.4344 12.375 20.7281 12.8469 19.9219 12.8469C18.3906 12.8469 18.6719 10.728 15.5874 10.728C14.0562 10.728 13.2095 11.4219 13.2095 12.4126C13.2095 13.4031 14.4187 13.7188 15.4688 13.9595L18.2313 14.5718C21.2562 15.2468 22.0219 17.0125 22.0219 18.675C22.0219 21.2468 20.0438 23.1719 16.0532 23.1719Z" fill="#FFFFFF" fill-opacity="0.600000" fill-rule="nonzero"/>
	</g>
</svg>
