<svg width="32.000000" height="32.000000" viewBox="0 0 32 32" fill="none" xmlns="http://www.w3.org/2000/svg" xmlns:xlink="http://www.w3.org/1999/xlink">
	<desc>
			Created with Pixso.
	</desc>
	<defs>
		<clipPath id="clip1_988">
			<rect id="fluent:mail-24-filled" width="32.000000" height="32.000000" fill="white" fill-opacity="0"/>
		</clipPath>
	</defs>
	<rect id="fluent:mail-24-filled" width="32.000000" height="32.000000" fill="#FFFFFF" fill-opacity="0"/>
	<g clip-path="url(#clip1_988)">
		<path id="Vector" d="M29.3333 11.4773L29.3333 22.3333C29.3334 23.4402 28.9099 24.5051 28.1498 25.3096C27.3895 26.114 26.3503 26.5972 25.2452 26.6599L25 26.6665L7 26.6665C5.89307 26.6667 4.82825 26.2432 4.02368 25.4829C3.21912 24.7229 2.73596 23.6836 2.67334 22.5786L2.66663 22.3333L2.66663 11.4773L15.536 18.2185C15.6791 18.2935 15.8384 18.3328 16 18.3328C16.1616 18.3328 16.3208 18.2935 16.464 18.2185L29.3333 11.4773ZM7 5.33325L25 5.33325C26.0741 5.33301 27.11 5.73193 27.9067 6.45239C28.7034 7.17261 29.2042 8.16333 29.312 9.23193L16 16.2053L2.68799 9.23193C2.79138 8.20557 3.25732 7.25 4.00232 6.53662C4.74719 5.82324 5.72217 5.39893 6.75195 5.33984L7 5.33325L25 5.33325L7 5.33325Z" fill="#F96D6B" fill-opacity="1.000000" fill-rule="nonzero"/>
	</g>
</svg>
