<svg width="32.000000" height="32.000000" viewBox="0 0 32 32" fill="none" xmlns="http://www.w3.org/2000/svg" xmlns:xlink="http://www.w3.org/1999/xlink">
	<desc>
			Created with Pixso.
	</desc>
	<defs>
		<clipPath id="clip1_975">
			<rect id="Frame 4" width="32.000000" height="32.000000" fill="white" fill-opacity="0"/>
		</clipPath>
	</defs>
	<g clip-path="url(#clip1_975)">
		<path id="Vector" d="M11.0333 4.01929C12.8336 3.99023 14.6342 4.01099 16.4348 4.0083C18.5701 4.0083 20.7053 3.9834 22.8406 4.01978C23.5037 4.0354 24.1689 4.21411 24.7383 4.57397C25.2794 4.9104 25.7257 5.39575 26.0692 5.94385C26.4507 6.54199 26.6689 7.25562 26.6667 7.97583C26.658 9.11938 26.2068 10.2766 25.3677 11.0286C24.8207 11.5298 24.1418 11.8718 23.4249 12.0042C23.1006 12.0664 22.7708 12.0906 22.4412 12.0881C20.403 12.0874 18.3647 12.0862 16.3264 12.0933C16.0295 12.0933 15.7021 12.0718 15.4467 12.2581C15.2372 12.4094 15.1735 12.6924 15.1768 12.9446C15.1793 14.6785 15.1749 16.4121 15.1768 18.146C15.1705 18.3059 15.1943 18.4766 15.1318 18.6272C15.0908 18.7007 15.0015 18.6548 14.9484 18.6238C13.4176 17.7388 11.8853 16.8564 10.36 15.9604C9.64709 15.5461 8.91492 15.167 8.22217 14.7161C7.65833 14.3428 7.12671 13.9048 6.69873 13.3667C5.84448 12.2749 5.32825 10.8804 5.33337 9.46436C5.36487 7.97949 6.00159 6.51758 7.05969 5.52344C7.53381 5.06274 8.08081 4.67529 8.68823 4.43359C9.17664 4.23657 9.68811 4.09058 10.2113 4.04468C10.4849 4.02368 10.759 4.02734 11.0333 4.01929Z" fill="#F96D6B" fill-opacity="1.000000" fill-rule="nonzero"/>
		<path id="Vector" d="M16.8834 13.3467C16.9578 13.3079 17.0311 13.3625 17.0981 13.394C17.6337 13.7009 18.1681 14.01 18.7029 14.3186C19.3718 14.7114 20.0538 15.0791 20.7279 15.4614C21.3613 15.834 21.9906 16.2144 22.6295 16.5767C23.5026 17.0735 24.4034 17.5691 25.0896 18.3386C25.4642 18.7446 25.7399 19.2334 26.002 19.7229C26.1357 19.9875 26.2764 20.2542 26.3461 20.5474C26.4058 20.781 26.4509 21.0188 26.5271 21.2478C26.6664 21.665 26.6642 22.1123 26.6664 22.5486C26.6708 22.9092 26.6261 23.2683 26.5443 23.6182C26.4047 24.1975 26.2159 24.7705 25.9117 25.28C25.5786 25.845 25.146 26.3442 24.6534 26.7625C23.9156 27.3887 23.0029 27.7603 22.0717 27.9246C21.5435 28.02 21.0057 27.9985 20.4724 27.9966C16.8812 27.9888 13.2897 28.0005 9.69836 27.9966C9.18372 28.0049 8.6626 27.9817 8.16626 27.8269C7.43176 27.6104 6.7771 27.1465 6.27429 26.5513C5.88867 26.1062 5.62769 25.5566 5.46899 24.9832C5.10803 23.6697 5.48438 22.176 6.39893 21.2031C6.91089 20.6458 7.56592 20.2036 8.30115 20.0635C8.92029 19.96 9.547 19.9004 10.1744 19.9092C12.1288 19.8999 14.0831 19.9077 16.0375 19.8997C16.2571 19.8916 16.5007 19.8459 16.6521 19.6641C16.8031 19.4766 16.8234 19.219 16.8267 18.9844C16.8278 17.2344 16.8252 15.4844 16.8278 13.7341C16.8344 13.6047 16.8152 13.4619 16.8834 13.3467Z" fill="#F96D6B" fill-opacity="1.000000" fill-rule="nonzero"/>
	</g>
</svg>
