<svg width="72.000000" height="72.000000" viewBox="0 0 72 72" fill="none" xmlns="http://www.w3.org/2000/svg" xmlns:xlink="http://www.w3.org/1999/xlink">
	<desc>
			Created with Pixso.
	</desc>
	<defs/>
	<circle id="Ellipse 2" cx="36.000000" cy="36.000000" r="36.000000" fill="#707070" fill-opacity="1.000000"/>
	<path id="2" d="M26.8144 43.92L26.8144 46.98L44.6344 46.98L44.6344 43.92L31.9984 43.92L31.6744 43.956L31.6744 43.884L32.0344 43.668L37.2544 39.96Q40.9264 37.368 42.7624 34.92Q43.4588 33.9959 43.8961 32.9622Q44.6344 31.2173 44.6344 29.16C44.6344 26.88 43.8184 24.96 42.1864 23.4Q41.3984 22.6468 40.4763 22.1361Q38.5333 21.06 35.9944 21.06Q33.2171 21.06 31.194 22.2953Q29.5459 23.3017 28.3984 25.128C27.6784 26.328 27.2104 27.672 26.9944 29.16L30.4144 29.16C30.5824 28.248 30.9064 27.408 31.3864 26.64C32.3944 24.96 33.9304 24.12 35.9944 24.12Q37.8405 24.12 39.1382 24.9635Q39.5361 25.2221 39.8824 25.56C40.8904 26.496 41.3944 27.696 41.3944 29.16Q41.3944 30.5531 40.914 31.7541Q40.5626 32.6325 39.9544 33.408C38.9944 34.632 37.3744 36.096 35.0944 37.8L26.8144 43.92Z" fill="#FFFFFF" fill-opacity="1.000000" fill-rule="evenodd"/>
</svg>
