<svg width="72.000000" height="72.000000" viewBox="0 0 72 72" fill="none" xmlns="http://www.w3.org/2000/svg" xmlns:xlink="http://www.w3.org/1999/xlink">
	<desc>
			Created with Pixso.
	</desc>
	<defs/>
	<circle id="Ellipse 2" cx="36.000000" cy="36.000000" r="36.000000" fill="#707070" fill-opacity="1.000000"/>
	<path id="3" d="M29.6149 40.14L26.1949 40.14C26.5069 41.508 27.0709 42.768 27.8869 43.92Q28.7246 45.1249 29.8439 45.9457Q32.2361 47.7 35.9149 47.7C38.6269 47.7 40.8589 46.908 42.6109 45.324C44.3869 43.74 45.2749 41.832 45.2749 39.6C45.2749 37.392 44.3989 35.496 42.6469 33.912C40.9189 32.304 38.7349 31.5 36.0949 31.5L35.5549 31.5L35.5909 31.464L35.9149 31.212L43.8349 24.84L43.8349 21.78L27.4549 21.78L27.4549 24.84L39.3349 24.84L39.2989 24.876L30.8749 31.68L30.8749 34.56L36.0949 34.56C37.9429 34.56 39.3949 35.028 40.4509 35.964C41.5069 36.9 42.0349 38.112 42.0349 39.6C42.0349 41.088 41.4949 42.3 40.4149 43.236C39.3589 44.172 37.8589 44.64 35.9149 44.64Q33.4934 44.64 31.883 43.4971Q31.2429 43.0428 30.7309 42.408C30.2029 41.784 29.8309 41.028 29.6149 40.14Z" fill="#FFFFFF" fill-opacity="1.000000" fill-rule="evenodd"/>
</svg>
